<svg width="24" height="18" viewBox="0 0 24 18" fill="none" xmlns="http://www.w3.org/2000/svg">
<path opacity="0.4" d="M4.92658 17.9601V16.7655C4.92658 16.3074 4.64777 16.0088 4.16987 16.0088C3.93096 16.0088 3.6721 16.0885 3.49288 16.3473C3.35356 16.1283 3.15447 16.0088 2.85579 16.0088C2.65662 16.0088 2.45762 16.0685 2.29826 16.2876V16.0487H1.88013V17.9601H2.29826V16.9048C2.29826 16.5664 2.47748 16.407 2.7563 16.407C3.03493 16.407 3.17443 16.5863 3.17443 16.9048V17.9601H3.59256V16.9048C3.59256 16.5664 3.79155 16.407 4.05041 16.407C4.32923 16.407 4.46854 16.5863 4.46854 16.9048V17.9601H4.92658ZM11.1188 16.0487H10.4419V15.4713H10.0238V16.0487H9.64546V16.4269H10.0237V17.3031C10.0237 17.7412 10.2029 17.9999 10.6808 17.9999C10.86 17.9999 11.059 17.9403 11.1985 17.8606L11.079 17.5022C10.9595 17.5818 10.8202 17.6018 10.7206 17.6018C10.5215 17.6018 10.4419 17.4823 10.4419 17.2831V16.4269H11.1188V16.0487ZM14.663 16.0088C14.4241 16.0088 14.2648 16.1283 14.1653 16.2876V16.0487H13.7471V17.9601H14.1653V16.8849C14.1653 16.5664 14.3046 16.3872 14.5634 16.3872C14.6431 16.3872 14.7427 16.4071 14.8223 16.427L14.9417 16.0288C14.8621 16.0088 14.7427 16.0088 14.663 16.0088M9.30697 16.208C9.10779 16.0686 8.82907 16.0089 8.53039 16.0089C8.05258 16.0089 7.73404 16.2478 7.73404 16.6262C7.73404 16.9448 7.97294 17.1239 8.39107 17.1837L8.59016 17.2037C8.8092 17.2434 8.92866 17.3032 8.92866 17.4028C8.92866 17.5421 8.76939 17.6417 8.49057 17.6417C8.21176 17.6417 7.99281 17.5421 7.8534 17.4426L7.65431 17.7611C7.87335 17.9204 8.17203 18 8.47062 18C9.02816 18 9.34679 17.7413 9.34679 17.3828C9.34679 17.0443 9.08793 16.8651 8.68966 16.8054L8.49057 16.7854C8.31135 16.7655 8.17203 16.7258 8.17203 16.6063C8.17203 16.4669 8.31135 16.3873 8.53039 16.3873C8.76939 16.3873 9.00829 16.4868 9.12774 16.5465L9.30697 16.208ZM20.4173 16.0089C20.1784 16.0089 20.0191 16.1284 19.9195 16.2877V16.0488H19.5014V17.9602H19.9195V16.885C19.9195 16.5665 20.0589 16.3873 20.3177 16.3873C20.3974 16.3873 20.497 16.4072 20.5766 16.4271L20.6961 16.0289C20.6164 16.0089 20.497 16.0089 20.4173 16.0089ZM15.0812 17.0045C15.0812 17.5819 15.4793 18 16.0966 18C16.3754 18 16.5745 17.9404 16.7735 17.7811L16.5745 17.4426C16.4152 17.562 16.2559 17.6217 16.0767 17.6217C15.7382 17.6217 15.4993 17.3828 15.4993 17.0045C15.4993 16.6461 15.7382 16.4071 16.0767 16.3873C16.2559 16.3873 16.4152 16.4469 16.5745 16.5665L16.7735 16.228C16.5745 16.0686 16.3754 16.0089 16.0966 16.0089C15.4793 16.0089 15.0812 16.4271 15.0812 17.0045ZM18.9439 17.0045V16.0488H18.5258V16.2877C18.3864 16.1085 18.1873 16.0089 17.9284 16.0089C17.3908 16.0089 16.9727 16.4271 16.9727 17.0045C16.9727 17.5819 17.3908 18 17.9284 18C18.2072 18 18.4063 17.9005 18.5258 17.7213V17.9602H18.9439V17.0045ZM17.4107 17.0045C17.4107 16.666 17.6298 16.3873 17.9881 16.3873C18.3266 16.3873 18.5656 16.6461 18.5656 17.0045C18.5656 17.343 18.3266 17.6217 17.9881 17.6217C17.6298 17.6018 17.4107 17.343 17.4107 17.0045ZM12.4131 16.0089C11.8556 16.0089 11.4573 16.4071 11.4573 17.0045C11.4573 17.6019 11.8555 18 12.433 18C12.7117 18 12.9905 17.9204 13.2095 17.7413L13.0104 17.4426C12.8511 17.562 12.652 17.6417 12.4529 17.6417C12.1941 17.6417 11.9352 17.5222 11.8754 17.1836H13.2892V17.0244C13.3091 16.4071 12.9508 16.0089 12.4131 16.0089ZM12.413 16.3673C12.6718 16.3673 12.8511 16.5267 12.8908 16.8253H11.8953C11.9351 16.5665 12.1143 16.3673 12.413 16.3673ZM22.7866 17.0045V15.2921H22.3685V16.2877C22.2291 16.1085 22.03 16.0089 21.7711 16.0089C21.2336 16.0089 20.8154 16.4271 20.8154 17.0045C20.8154 17.5819 21.2336 18 21.7711 18C22.05 18 22.249 17.9005 22.3685 17.7213V17.9602H22.7866V17.0045ZM21.2535 17.0045C21.2535 16.666 21.4725 16.3873 21.8309 16.3873C22.1694 16.3873 22.4083 16.6461 22.4083 17.0045C22.4083 17.343 22.1694 17.6217 21.8309 17.6217C21.4725 17.6018 21.2535 17.343 21.2535 17.0045ZM7.27591 17.0045V16.0488H6.85778V16.2877C6.71837 16.1085 6.51928 16.0089 6.26042 16.0089C5.72284 16.0089 5.30471 16.4271 5.30471 17.0045C5.30471 17.5819 5.72284 18 6.26042 18C6.53924 18 6.73833 17.9005 6.85778 17.7213V17.9602H7.27591V17.0045ZM5.72284 17.0045C5.72284 16.666 5.94188 16.3873 6.30024 16.3873C6.63874 16.3873 6.87773 16.6461 6.87773 17.0045C6.87773 17.343 6.63874 17.6217 6.30024 17.6217C5.94188 17.6018 5.72284 17.343 5.72284 17.0045Z" fill="#464E3F"/>
<path opacity="0.4" d="M9.56627 7.16812C9.56627 4.87834 10.6414 2.84733 12.294 1.53314C11.0795 0.577412 9.5464 0 7.87388 0C3.91144 0 0.705811 3.2057 0.705811 7.16812C0.705811 11.1306 3.91144 14.3362 7.87379 14.3362C9.54631 14.3362 11.0794 13.7588 12.294 12.803C10.6414 11.5088 9.56627 9.45791 9.56627 7.16812Z" fill="#464E3F"/>
<path opacity="0.4" d="M23.8824 7.16812C23.8824 11.1305 20.6767 14.3362 16.7144 14.3362C15.0419 14.3362 13.5088 13.7588 12.2942 12.803C13.9667 11.4889 15.022 9.45791 15.022 7.16812C15.022 4.87834 13.9468 2.84733 12.2942 1.53314C13.5087 0.577412 15.0419 0 16.7144 0C20.6767 0 23.8824 3.22565 23.8824 7.16812Z" fill="#464E3F"/>
<path opacity="0.1" fill-rule="evenodd" clip-rule="evenodd" d="M12.2938 1.5332H12.2936C10.6411 2.84739 9.56592 4.8784 9.56592 7.16819C9.56592 9.45797 10.6411 11.5088 12.2936 12.8031H12.2938C13.9664 11.489 15.0217 9.45797 15.0217 7.16819C15.0217 4.8784 13.9464 2.84739 12.2938 1.5332Z" fill="#464E3F"/>
</svg>
